<?xml version="1.0" encoding="UTF-8"?>
<svg width="75px" height="67px" viewBox="0 0 75 67" version="1.1" xmlns="http://www.w3.org/2000/svg" xmlns:xlink="http://www.w3.org/1999/xlink">
    <!-- Generator: sketchtool 63.1 (101010) - https://sketch.com -->
    <title>6A3809F2-BE0D-477B-96EC-1749E066FDE6</title>
    <desc>Created with sketchtool.</desc>
    <defs>
        <polygon id="path-1" points="0 0.00218122656 14.9374138 0.00218122656 14.9374138 33 0 33"></polygon>
        <polygon id="path-3" points="0 0.00218122656 14.9374138 0.00218122656 14.9374138 33 0 33"></polygon>
    </defs>
    <g id="Page-1" stroke="none" stroke-width="1" fill="none" fill-rule="evenodd">
        <g id="1.0-Landing-/-distribuidores" transform="translate(-1291.000000, -97.000000)">
            <g id="CTA-fb" transform="translate(1291.000000, 97.000000)">
                <path d="M33.5,0 L75,0 L75,0 L75,67 L33.5,67 C14.9984609,67 2.26578507e-15,52.0015391 0,33.5 C-2.26578507e-15,14.9984609 14.9984609,3.3986776e-15 33.5,0 Z" id="Rectangle-Copy" fill="#0E263C"></path>
                <g id="Group-7" transform="translate(31.000000, 17.000000)">
                    <g id="Group-3">
                        <mask id="mask-2" fill="white">
                            <use xlink:href="#path-1"></use>
                        </mask>
                        <g id="Clip-2"></g>
                        <path d="M9.9777069,33 L9.9777069,31.8803065 C9.9777069,27.1417903 9.99960345,22.4029194 9.95753448,17.6647581 C9.94994828,16.8158065 10.2259828,16.590129 10.9852931,16.6348387 C11.8404655,16.6850484 12.7013276,16.6265 13.5587414,16.6497419 C14.1652931,16.6660645 14.4121897,16.4292097 14.4501207,15.7795 C14.528569,14.4328871 14.6154655,13.076871 14.8480517,11.7524355 C15.0033966,10.8674677 14.6956379,10.7454032 13.9754655,10.7713065 C12.8615,10.8114032 11.7449483,10.7745 10.629431,10.7849677 C10.2416724,10.7885161 9.96081034,10.7395484 9.97322414,10.2262742 C9.99598276,9.2848871 9.94477586,8.34083871 9.99184483,7.40140323 C10.0402931,6.435 10.5158103,5.98967742 11.4842586,5.95295161 C12.3697759,5.91924194 13.2575345,5.91977419 14.1437414,5.93662903 C14.6663276,5.94656452 14.9452931,5.78280645 14.9373621,5.18685484 C14.9171897,3.68606452 14.9237414,2.18491935 14.9328793,0.683951613 C14.9358103,0.204564516 14.7496034,-0.0131290323 14.2690862,0.00301612903 C12.3859828,0.0663548387 10.4954655,0.0306935484 8.62012069,0.188064516 C5.86374138,0.419241935 3.96408621,2.15298387 3.53374138,4.93846774 C3.28477586,6.55014516 3.33167241,8.21682258 3.32718966,9.85883871 C3.3252931,10.6032903 3.09287931,10.846 2.38684483,10.794371 C1.63339655,10.7391935 0.87287931,10.7819516 -5.17241379e-05,10.7819516 L-5.17241379e-05,14.3608548 C-5.17241379e-05,16.634129 0.000810344828,16.6731613 2.20684483,16.6268548 C3.06736207,16.6087581 3.33615517,16.8615806 3.32822414,17.767129 C3.28667241,22.4758387 3.30891379,27.1850806 3.30891379,31.8943226 L3.30891379,33 L9.9777069,33 Z" id="Fill-1" fill="#1D1D1B" mask="url(#mask-2)"></path>
                    </g>
                    <g id="Group-6">
                        <mask id="mask-4" fill="white">
                            <use xlink:href="#path-3"></use>
                        </mask>
                        <g id="Clip-5"></g>
                        <path d="M9.9777069,33 L3.30891379,33 L3.30891379,31.8943226 C3.30891379,27.1850806 3.28667241,22.4758387 3.32822414,17.767129 C3.33615517,16.8615806 3.06736207,16.6087581 2.20684483,16.6268548 C0.000810344828,16.6731613 -5.17241379e-05,16.634129 -5.17241379e-05,14.3608548 L-5.17241379e-05,10.7819516 C0.87287931,10.7819516 1.63339655,10.7391935 2.38684483,10.794371 C3.09287931,10.846 3.3252931,10.6032903 3.32718966,9.85883871 C3.33167241,8.21682258 3.28477586,6.55014516 3.53374138,4.93846774 C3.96408621,2.15298387 5.86374138,0.419241935 8.62012069,0.188064516 C10.4954655,0.0306935484 12.3859828,0.0663548387 14.2690862,0.00301612903 C14.7496034,-0.0131290323 14.9358103,0.204564516 14.9328793,0.683951613 C14.9237414,2.18491935 14.9171897,3.68606452 14.9373621,5.18685484 C14.9452931,5.78280645 14.6663276,5.94656452 14.1437414,5.93662903 C13.2575345,5.91977419 12.3697759,5.91924194 11.4842586,5.95295161 C10.5158103,5.98967742 10.0402931,6.435 9.99184483,7.40140323 C9.94477586,8.34083871 9.99598276,9.2848871 9.97322414,10.2262742 C9.96081034,10.7395484 10.2416724,10.7885161 10.629431,10.7849677 C11.7449483,10.7745 12.8615,10.8114032 13.9754655,10.7713065 C14.6956379,10.7454032 15.0033966,10.8674677 14.8480517,11.7524355 C14.6154655,13.076871 14.528569,14.4328871 14.4501207,15.7795 C14.4121897,16.4292097 14.1652931,16.6660645 13.5587414,16.6497419 C12.7013276,16.6265 11.8404655,16.6850484 10.9852931,16.6348387 C10.2259828,16.590129 9.94994828,16.8158065 9.95753448,17.6647581 C9.99960345,22.4029194 9.9777069,27.1417903 9.9777069,31.8803065 L9.9777069,33 Z" id="Fill-4" fill="#FEFEFE" mask="url(#mask-4)"></path>
                    </g>
                </g>
            </g>
        </g>
    </g>
</svg>