<?xml version="1.0" encoding="UTF-8"?>
<svg width="33px" height="23px" viewBox="0 0 33 23" version="1.1" xmlns="http://www.w3.org/2000/svg" xmlns:xlink="http://www.w3.org/1999/xlink">
    <!-- Generator: sketchtool 63.1 (101010) - https://sketch.com -->
    <title>53C8B473-032A-4862-A734-9583F7A53119</title>
    <desc>Created with sketchtool.</desc>
    <defs>
        <polygon id="path-1" points="0 0 33 0 33 23 0 23"></polygon>
    </defs>
    <g id="Page-1" stroke="none" stroke-width="1" fill="none" fill-rule="evenodd">
        <g id="1.0-Landing" transform="translate(-900.000000, -23.000000)">
            <g id="Barra-de-navegacion">
                <g id="icon-mensaje" transform="translate(900.000000, 23.000000)">
                    <g id="Group-3">
                        <mask id="mask-2" fill="white">
                            <use xlink:href="#path-1"></use>
                        </mask>
                        <g id="Clip-2"></g>
                        <path d="M31.9411885,20.6309719 C31.7283771,20.7982297 31.4676083,20.8804876 31.2075887,20.8804876 C30.8921183,20.8804876 30.5781466,20.7591572 30.3555939,20.5240366 L21.8955925,11.5517539 L19.0541111,14.279975 C18.3812076,14.9263851 17.4737619,15.2807797 16.4996253,15.2807797 C15.5254888,15.2807797 14.6187924,14.9263851 13.9458889,14.2806604 L11.2857467,11.7299794 L2.99359658,20.5240366 C2.77104385,20.7591572 2.45707214,20.8804876 2.14160176,20.8804876 C1.88158223,20.8804876 1.62081337,20.7982297 1.408002,20.6309719 C0.938168442,20.2601258 0.885714934,19.6109737 1.29110561,19.181176 L9.72637889,10.2349417 L2.28997025,3.10592197 C1.86135017,2.69531786 1.87783555,2.04410932 2.32668771,1.65201323 C2.7762892,1.25991715 3.48740889,1.27499776 3.91602897,1.68628737 L15.5726969,12.8617113 C16.0620132,13.3305815 16.9387361,13.3305815 17.4265537,12.8617113 L29.0629896,1.68697285 C29.4908604,1.27568325 30.2027294,1.25923166 30.6523309,1.65201323 C31.1019324,2.04342384 31.1191671,2.69394689 30.6912964,3.10523649 L23.4534617,10.0553453 L32.0580849,19.181176 C32.4634756,19.6109737 32.411022,20.2601258 31.9411885,20.6309719 L31.9411885,20.6309719 Z M33,2.45539892 C33,1.0995142 31.7980654,0 30.3158791,0 L2.68412089,0 C1.20193465,0 0,1.0995142 0,2.45539892 L0,20.5452866 C0,21.9011713 1.20193465,23 2.68412089,23 L30.3158791,23 C31.7980654,23 33,21.9011713 33,20.5452866 L33,2.45539892 Z" id="Fill-1" fill="#FEFEFE" mask="url(#mask-2)"></path>
                    </g>
                </g>
            </g>
        </g>
    </g>
</svg>