<?xml version="1.0" encoding="UTF-8"?>
<svg width="161px" height="36px" viewBox="0 0 161 36" version="1.1" xmlns="http://www.w3.org/2000/svg" xmlns:xlink="http://www.w3.org/1999/xlink">
    <!-- Generator: sketchtool 63.1 (101010) - https://sketch.com -->
    <title>91276B57-8057-4460-A3A8-530D34085B14</title>
    <desc>Created with sketchtool.</desc>
    <defs>
        <polygon id="path-1" points="0.166095577 0.13578481 13.9830664 0.13578481 13.9830664 33.9034873 0.166095577 33.9034873"></polygon>
    </defs>
    <g id="Page-1" stroke="none" stroke-width="1" fill="none" fill-rule="evenodd" opacity="0.959999979">
        <g id="1.0-Landing" transform="translate(-104.000000, -16.000000)">
            <g id="Barra-de-navegacion">
                <g id="logo-mafornu" transform="translate(104.000000, 16.000000)">
                    <path d="M0.966568189,29.5564978 L3.65054833,7.2049558 C3.73819287,6.70877419 3.78190799,5.85454058 3.78190799,5.45058448 C3.78190799,4.7455392 3.65911992,4.27043174 3.27704115,3.76945107 C3.03982231,3.46022434 3.25261211,3.02058824 3.64947688,3.02058824 L8.17420667,3.02058824 C8.36513891,3.02058824 8.5380708,3.13201001 8.61221508,3.30373308 L17.0220195,22.7338963 C17.1861655,23.1130224 17.737319,23.1107272 17.8993221,22.7303491 L26.1411233,3.30748887 C26.2152676,3.13451387 26.3879852,3.02058824 26.5814889,3.02058824 L30.9930737,3.02058824 C31.3910099,3.02058824 31.6014425,3.46022434 31.3642236,3.77049434 C30.9847163,4.26938847 30.8825001,4.7622316 30.8825001,5.58433234 C30.8825001,5.98954037 30.8825001,6.25953995 30.9712161,6.93495622 L33.8742004,29.1514984 C34.0494895,30.6821915 34.1382055,31.0410782 34.4459257,31.580034 C34.5639994,31.8226998 34.6953591,32.0255125 34.8925057,32.2658831 C35.1445106,32.5690588 34.9255063,33.0205882 34.5252129,33.0205882 L29.5781179,33.0205882 C29.2118966,33.0205882 28.9661061,32.6237264 29.1632528,32.3228459 C29.4894019,31.8264556 29.6059756,31.2363792 29.6059756,30.3669138 C29.6059756,29.9166363 29.6059756,29.3776804 29.5622604,29.0162899 L27.3222888,11.5931793 C27.2616448,11.1226623 26.5984178,11.0350272 26.4124142,11.4746633 L17.4600279,32.5348394 C17.2993106,32.9139655 16.7470857,32.9152175 16.5827254,32.5360913 L7.51590831,11.4794623 C7.32733325,11.0410782 6.66432052,11.1322604 6.60710513,11.6036121 L4.39884842,29.826706 C4.35384755,30.0518448 4.35384755,30.4119833 4.35384755,30.6821915 C4.35384755,31.3784733 4.4412778,31.7861852 4.81607072,32.2957207 C5.03871785,32.5988965 4.80771342,33.0205882 4.42563465,33.0205882 L0.474987316,33.0205882 C0.079622577,33.0205882 -0.141738819,32.5799089 0.10148014,32.2765245 C0.583203681,31.6747634 0.815708148,30.8787446 0.966568189,29.5564978" id="Fill-1" fill="#FFFFFF"></path>
                    <path d="M46.1177524,22.5191079 C41.2151899,22.5191079 38.5331189,24.2383741 38.5331189,27.3867098 C38.5331189,30.0108763 40.5220324,31.8244398 43.4343299,31.8244398 C45.1457101,31.8244398 46.7187742,31.2035383 47.8291327,30.152765 C48.3828476,29.5810044 48.8471302,28.8658056 49.1706187,28.1019086 C49.6786037,26.8625406 49.8180462,25.9073927 49.8180462,23.6174727 C49.8180462,23.4868731 49.8180462,23.3560521 49.8142166,23.2292156 C49.8038541,22.9866102 49.6195828,22.7856196 49.3753896,22.7541872 C47.8521103,22.5605014 47.1422828,22.5191079 46.1177524,22.5191079 M50.4830448,32.6777643 C50.4663748,32.2403663 49.922797,32.0418107 49.6195828,32.3623331 C47.8572915,34.2148551 45.6419811,35.0205882 42.5095943,35.0205882 C37.2387144,35.0205882 34,32.348609 34,27.9119858 C34,22.4248106 38.3015408,19.5618018 46.6268638,19.5618018 C47.5975546,19.5618018 48.2461084,19.6082864 49.7718657,19.70524 L49.7718657,19.3231809 C49.7718657,17.5572087 49.7718657,17.2718818 49.4483772,16.5555762 C48.8471302,15.1240718 46.9963075,14.408873 44.0828837,14.408873 C42.4174587,14.408873 40.8455209,14.5987958 39.411674,15.0286677 C38.4513457,15.2863252 37.8181102,15.5149852 36.8408867,15.9975396 C36.4586026,16.1861343 36.0260832,15.8443618 36.1324109,15.4370681 L37.0621023,11.9080014 C37.1121124,11.7167505 37.278362,11.5735336 37.4766001,11.5447575 C40.4310231,11.1100158 41.7484052,11.0205882 43.7129895,11.0205882 C46.7187742,11.0205882 48.8930854,11.3548347 50.7425564,12.0713616 C51.7134724,12.4999054 52.5460723,13.0729941 53.1011389,13.8357843 C53.9339641,14.980855 54.1180101,16.031407 54.1180101,19.8484569 L54.1180101,28.0073899 C54.1180101,29.6288171 54.2101457,30.7749946 54.4417238,32.0154694 C54.6104515,32.7443922 54.7307459,33.1716079 54.9607472,33.7172485 C55.0977116,34.041534 54.859826,34.4007935 54.5018711,34.4007935 L51.1045662,34.4007935 C50.8642025,34.4007935 50.6558273,34.2325636 50.6121248,33.9999192 C50.543192,33.6127689 50.5021928,33.2282748 50.4830448,32.6777643" id="Fill-3" fill="#FFFFFF"></path>
                    <g id="Group-7" transform="translate(59.000000, 0.020588)">
                        <mask id="mask-2" fill="white">
                            <use xlink:href="#path-1"></use>
                        </mask>
                        <g id="Clip-6"></g>
                        <path d="M3.0242,33.9034873 C2.6562,33.9034873 2.4484,33.4502975 2.6732,33.1387025 C3.1298,32.5094873 3.2854,31.6848797 3.2854,30.3786772 L3.2854,15.6413987 C3.2854,15.3775759 3.0854,15.1636772 2.8412,15.1636772 L2.587,15.1636772 C1.9714,15.1636772 1.4002,15.2344747 0.7042,15.3932848 C0.343,15.4752722 0.049,15.0743734 0.2124,14.7165127 L1.439,12.0445 C1.5138,11.8807405 1.6682,11.7780949 1.8364,11.7780949 L2.8412,11.7780949 C3.0854,11.7780949 3.2854,11.5641962 3.2854,11.3003734 L3.2854,8.48418354 C3.2854,2.73323418 5.9128,0.135677215 11.6622,0.135677215 C12.188,0.135677215 12.5036,0.135677215 13.1248,0.194424051 C13.3248,0.211424051 13.4916,0.373892405 13.5268,0.587791139 L13.9764,3.36481646 C14.0286,3.68867722 13.7664,3.97079114 13.4644,3.91699367 C12.4232,3.72655063 11.8928,3.66156329 11.1274,3.66156329 C9.8952,3.66156329 9.0334,3.93894304 8.335,4.5879557 C7.4722,5.37727215 7.2256,6.53542405 7.2256,9.45791772 L7.2256,11.3003734 C7.2256,11.5641962 7.4254,11.7780949 7.6708,11.7780949 L10.06,11.7780949 C10.7584,11.7780949 11.4012,11.7133228 12.038,11.5839937 C12.3992,11.5106139 12.6876,11.903981 12.5264,12.2594747 L11.3306,14.895981 C11.2568,15.0599557 11.1024,15.1636772 10.9332,15.1636772 L7.6708,15.1636772 C7.4254,15.1636772 7.2256,15.3775759 7.2256,15.6413987 L7.2256,30.3786772 C7.2256,31.6848797 7.3812,32.5094873 7.8388,33.1387025 C8.0636,33.4502975 7.8548,33.9034873 7.488,33.9034873 L3.0242,33.9034873 Z" id="Fill-5" fill="#FFFFFF" mask="url(#mask-2)"></path>
                    </g>
                    <path d="M88.3475501,23.0921967 C88.3475501,17.9392679 85.3996896,14.408873 81.0236717,14.408873 C76.6005348,14.408873 73.6982227,17.8914551 73.6982227,23.1878221 C73.6982227,28.294045 76.6934267,31.6810016 81.1154418,31.6810016 C85.3996896,31.6810016 88.3475501,28.1973127 88.3475501,23.0921967 M69,23.2845544 C69,16.1270324 74.0219983,11.0205882 81.1154418,11.0205882 C88.1171153,11.0205882 93,15.7914579 93,22.6623248 C93,29.9632849 88.0253452,35.0205882 80.8859045,35.0205882 C73.8831091,35.0205882 69,30.203234 69,23.2845544" id="Fill-8" fill="#FFFFFF"></path>
                    <path d="M95.7487162,30.4489204 L95.7487162,17.9930015 L95.7065277,16.9110347 L95.7065277,15.6890795 C95.7065277,14.3075113 95.5785148,13.6847589 95.1088582,13.0818492 C94.8987432,12.8143012 95.0054552,12.4095994 95.320214,12.3066795 L99.1881078,11.0426406 C99.4840473,10.9460442 99.7820548,11.1789222 99.7820548,11.5044716 L99.7820548,12.8550766 C99.7820548,13.2711171 100.250884,13.4989799 100.54186,13.2179127 C102.02011,11.7955691 103.800297,11.083416 105.853881,11.083416 C106.131001,11.083416 106.341323,11.083416 106.630024,11.1379287 C106.845929,11.1789222 107,11.3819272 107,11.6121886 L107,15.0652369 C107,15.4104109 106.664147,15.6419806 106.360969,15.5072253 C105.784601,15.2521062 105.331489,15.1727358 104.665573,15.1727358 C101.650134,15.1727358 99.7820548,17.6650535 99.7820548,21.705748 L99.7820548,30.4489204 C99.7820548,31.7724872 99.9630101,32.6080568 100.433701,33.2456366 C100.667598,33.5611558 100.451486,34.0205882 100.070963,34.0205882 L95.4600149,34.0205882 C95.0807326,34.0205882 94.864827,33.5611558 95.0981043,33.2456366 C95.5692085,32.6080568 95.7487162,31.7724872 95.7487162,30.4489204" id="Fill-10" fill="#FFFFFF"></path>
                    <path d="M109.813653,30.2986716 L109.813653,17.3187714 L109.767593,16.1912897 L109.767593,14.9179307 C109.767593,13.4782442 109.629862,12.8292947 109.118258,12.2010224 C108.88998,11.9222195 109.005917,11.5004932 109.348109,11.3932438 L113.551481,10.0760307 C113.871654,9.97537081 114.196996,10.2180452 114.196996,10.5572895 L114.196996,11.6654573 C114.196996,12.0912736 114.681637,12.3184968 115.010798,12.054009 C116.76737,10.6449977 118.556073,10.0205882 120.792344,10.0205882 C123.652335,10.0205882 126.096663,11.0992169 127.527894,13.0085738 C128.864984,14.7720534 129.188752,16.6814102 129.188752,22.2161138 L129.188752,30.2986716 C129.188752,31.6779167 129.384226,32.5486361 129.895605,33.2130368 C130.148149,33.5418289 129.91358,34.0205882 129.501511,34.0205882 L124.491751,34.0205882 C124.079683,34.0205882 123.844889,33.5418289 124.097432,33.2130368 C124.609261,32.5486361 124.805634,31.6779167 124.805634,30.2986716 L124.805634,21.1877015 C124.805634,18.7380077 124.759574,18.2013065 124.620495,17.2696912 C124.299198,14.968147 122.500385,13.4986943 119.917203,13.4986943 C116.595263,13.4986943 114.196996,15.9965594 114.196996,19.4746655 L114.196996,30.2986716 C114.196996,31.6779167 114.393369,32.5486361 114.903624,33.2130368 C115.157516,33.5418289 114.922722,34.0205882 114.510653,34.0205882 L109.49977,34.0205882 C109.08905,34.0205882 108.853132,33.5418289 109.1068,33.2130368 C109.618628,32.5486361 109.813653,31.6779167 109.813653,30.2986716" id="Fill-12" fill="#FFFFFF"></path>
                    <path d="M146.956847,33.4979619 C146.956847,33.0891616 146.482249,32.8686479 146.152105,33.1158705 C144.45045,34.3853144 142.538991,35.0205882 140.386627,35.0205882 C137.61003,35.0205882 135.112423,34.0217648 133.632067,32.2620696 C132.707211,31.2144638 132.245008,29.9311136 132.105739,27.8844636 C132.013343,26.5523311 131.920046,24.6950713 131.920046,23.031837 L131.920046,15.418043 C131.920046,13.9605333 131.723086,13.1109264 131.133107,12.46285 C130.864484,12.1670658 131.023134,11.6997709 131.42359,11.6432629 L135.790515,11.0254271 C136.091364,10.9841498 136.361114,11.2121685 136.361114,11.5103807 L136.361114,24.7915322 C136.361114,27.0273517 136.408438,27.3606607 136.686301,28.4559451 C137.240223,30.4048098 138.952243,31.5954515 141.265511,31.5954515 C143.069701,31.5954515 144.829047,30.6906609 145.846298,29.310629 C146.585913,28.216669 146.956847,26.6474676 146.956847,24.4105445 L146.956847,15.418043 C146.956847,13.9605333 146.759887,13.1109264 146.170133,12.46285 C145.900158,12.1670658 146.056103,11.6997709 146.456559,11.6445873 L150.467875,11.0781826 C151.128164,10.9841498 151.39814,11.2121685 151.39814,11.5103807 L151.39814,28.8832871 L151.39814,29.9774678 L151.444112,31.2144638 C151.444112,32.4552122 151.531099,33.0891616 151.913751,33.6432052 C152.137529,33.9665811 151.899779,34.4027525 151.500225,34.4027525 L147.597981,34.4027525 C147.243498,34.4027525 146.956847,34.1219782 146.956847,33.7760873 L146.956847,33.4979619 Z" id="Fill-14" fill="#FFFFFF"></path>
                    <path d="M157.743273,8.88439747 C158.244905,8.88439747 158.495167,8.65572255 158.495167,8.15394169 C158.495167,7.68186201 158.244905,7.45342856 157.743273,7.45342856 L156.580045,7.45342856 L156.580045,8.88439747 L157.743273,8.88439747 Z M156.078413,6.96637755 L157.706665,6.96637755 C158.596114,6.96637755 158.995911,7.32472346 158.995911,8.11192539 C158.995911,8.58497097 158.845488,8.85542071 158.482299,9.09882548 C158.808881,9.24250191 158.908719,9.42819463 158.9207,9.95822784 C158.933346,10.6444941 158.946436,10.7314243 158.971063,10.8601294 C158.995911,10.9610651 159.034294,11.00284 159.134354,11.0745574 L159.134354,11.1745273 L158.532883,11.1745273 C158.482299,11.0458222 158.457672,10.8881403 158.457672,10.5877479 C158.445691,10.2583788 158.445691,10.0589221 158.432823,9.95822784 C158.419955,9.81527583 158.38246,9.67280677 158.307249,9.57090517 C158.220056,9.42819463 158.043897,9.37120701 157.757028,9.37120701 L156.580045,9.37120701 L156.580045,11.1745273 L156.078413,11.1745273 L156.078413,6.96637755 Z M157.494121,12.6204675 C159.24706,12.6204675 160.649013,11.0178113 160.649013,9.01406846 C160.649013,7.02336517 159.24706,5.42070897 157.494121,5.42070897 C155.740072,5.42070897 154.338119,7.02336517 154.338119,9.01406846 C154.338119,11.0178113 155.740072,12.6204675 157.494121,12.6204675 L157.494121,12.6204675 Z M157.494121,5.02058824 C159.434091,5.02058824 161,6.80990306 161,9.01406846 C161,11.2462447 159.446959,13.0205882 157.494121,13.0205882 C155.540173,13.0205882 154,11.2602502 154,9.0280739 C154,6.79493173 155.553041,5.02058824 157.494121,5.02058824 L157.494121,5.02058824 Z" id="Fill-16" fill="#FFFFFF"></path>
                </g>
            </g>
        </g>
    </g>
</svg>