<?xml version="1.0" encoding="UTF-8"?>
<svg width="60px" height="31px" viewBox="0 0 60 31" version="1.1" xmlns="http://www.w3.org/2000/svg" xmlns:xlink="http://www.w3.org/1999/xlink">
    <!-- Generator: sketchtool 63.1 (101010) - https://sketch.com -->
    <title>131E47DC-167E-4AEC-B78D-074E7BEE2ED9</title>
    <desc>Created with sketchtool.</desc>
    <defs>
        <polygon id="path-1" points="0.000103187657 0.0587029497 34.9891263 0.0587029497 34.9891263 31 0.000103187657 31"></polygon>
    </defs>
    <g id="Page-1" stroke="none" stroke-width="1" fill="none" fill-rule="evenodd">
        <g id="1.0-Landing" transform="translate(-104.000000, -2479.000000)">
            <g id="logo-mfn" transform="translate(104.000000, 2479.000000)">
                <g id="Group-3">
                    <mask id="mask-2" fill="white">
                        <use xlink:href="#path-1"></use>
                    </mask>
                    <g id="Clip-2"></g>
                    <path d="M0.967238462,27.4302914 L3.64662308,4.37618255 C3.73816154,3.86501097 3.77854615,2.98493037 3.77854615,2.56463373 C3.77854615,1.83925692 3.65685385,1.34864038 3.27723846,0.832059576 C3.03923846,0.513997258 3.25193077,0.0579997507 3.64662308,0.0579997507 L8.17023846,0.0579997507 C8.36300769,0.0579997507 8.53531538,0.175379892 8.61123846,0.353884254 L17.0198538,20.3923512 C17.1813923,20.7818153 17.7343923,20.7791107 17.8910846,20.386942 L26.1327769,0.356047943 C26.2087,0.175379892 26.3810077,0.0579997507 26.5732385,0.0579997507 L30.9853923,0.0579997507 C31.3800846,0.0579997507 31.5879308,0.513997258 31.3553154,0.834764188 C30.9757,1.34864038 30.8739308,1.85764828 30.8739308,2.70419169 C30.8739308,3.12232464 30.8739308,3.39927686 30.9600846,4.09598479 L33.8623923,27.0105357 C34.0395462,28.5878651 34.1257,28.9589378 34.4347769,29.5144651 C34.5516231,29.7659939 34.6830077,29.974249 34.8806231,30.2214505 C35.1337,30.5341036 34.9161615,31.0003786 34.5160846,31.0003786 L29.5665462,31.0003786 C29.2025462,31.0003786 28.9537769,30.5930641 29.1567769,30.2798701 C29.4809308,29.7681576 29.5972385,29.1601609 29.5972385,28.2649345 C29.5972385,27.7992004 29.5972385,27.2442141 29.5514692,26.8731414 L27.3125462,8.90262044 C27.2522385,8.41687221 26.5883154,8.32762002 26.4009308,8.77820831 L17.4554692,30.4989437 C17.2933923,30.8900305 16.7409308,30.8927351 16.5788538,30.5011074 L7.51223846,8.78253569 C7.32431538,8.33248833 6.66093077,8.42660881 6.60493077,8.91289796 L4.3967,27.7077845 C4.35093077,27.9387584 4.35093077,28.3109129 4.35093077,28.5878651 C4.35093077,29.3078327 4.44246923,29.7275885 4.81723846,30.2544468 C5.03477692,30.5649362 4.80646923,31.0003786 4.42200769,31.0003786 L0.475623077,31.0003786 C0.0809307692,31.0003786 -0.141992308,30.5449221 0.101392308,30.2344327 C0.582238462,29.6134538 0.814853846,28.7917929 0.967238462,27.4302914" id="Fill-1" fill="#030100" mask="url(#mask-2)"></path>
                </g>
                <path d="M57.4173062,20.5765731 C57.1358404,20.2954501 57,19.9347531 57,19.4950629 C57,19.057696 57.1358404,18.6999032 57.4173062,18.4181994 C57.6930161,18.1399806 58.0504605,18 58.4948196,18 C58.9391788,18 59.3012279,18.1399806 59.5775134,18.4181994 C59.8589793,18.6999032 60,19.057696 60,19.4950629 C60,19.9347531 59.8589793,20.2954501 59.5775134,20.5765731 C59.3012279,20.857696 58.9391788,21 58.4948196,21 C58.0504605,21 57.6930161,20.857696 57.4173062,20.5765731" id="Fill-4" fill="#030100"></path>
                <path d="M43.2036561,11.9267266 C42.9495599,11.962885 42.5029113,11.982973 42.2780636,11.982973 L41.3463778,11.982973 L41.3463778,11.3636885 C41.3463778,10.1647216 41.462153,9.93170078 41.7253893,9.70843696 C41.9526743,9.54830687 42.3548409,9.45303233 42.8051456,9.45303233 C43.3267434,9.45303233 43.590589,9.48746891 44.589912,9.64759901 L45,9.71417639 L44.4857143,7.08551751 L44.2730535,7.0614119 C43.72891,7 43.5004062,7 43.1213947,7 C39.8169262,7 38.2783345,8.25406543 38.2783345,10.946432 L38.2783345,11.982973 L37.5934326,11.982973 L36,14.8004592 L36.6392011,14.6454945 C37.4051456,14.4606849 37.8755586,14.3780371 38.2783345,14.3602449 L38.2783345,20.2167591 C38.2783345,21.0225751 38.0949221,21.2607614 37.6830061,21.4903386 L36.7708192,22 L42.8203791,22 L41.9459716,21.4926344 C41.540149,21.2573178 41.3463778,21.0065047 41.3463778,20.2167591 L41.3463778,14.3568012 L43.1914692,14.3568012 L44.7471225,11.559977 L44.0951253,11.7350297 C43.6752877,11.8480964 43.4924848,11.8876985 43.2036561,11.9267266" id="Fill-6" fill="#030100"></path>
                <path d="M52.2207473,21.5112823 L51.372148,22 L57,22 L56.1865464,21.5134838 C55.8090132,21.2878371 55.6287496,21.0473308 55.6287496,20.2900385 L55.6287496,17.0924601 C55.6287496,14.9675289 55.4490529,14.1144744 54.8612121,13.4419373 C54.1616987,12.6191524 52.9497378,12.1469455 51.5354055,12.1469455 C50.649393,12.1469455 50.0076999,12.2944414 49.2566016,12.69235 L49.2566016,12 L45.6105154,13.0572372 L45.9869148,13.3703908 C46.3117294,13.640066 46.3837215,13.7633462 46.4024281,14.4496423 L46.4024281,20.2900385 C46.4024281,21.0627408 46.2312344,21.2911392 45.8485994,21.5112823 L45,22 L50.6272852,22 L49.8138315,21.5134838 C49.4362984,21.2878371 49.2566016,21.0473308 49.2566016,20.2900385 L49.2566016,16.0836544 C49.2566016,15.0561365 50.0383107,14.3665382 51.202088,14.3665382 C51.7831263,14.3665382 52.1850347,14.5057788 52.4650668,14.8051734 C52.6799093,15.0759494 52.7553026,15.29224 52.774576,16.0110072 L52.774576,20.2900385 C52.774576,21.0627408 52.6033823,21.2911392 52.2207473,21.5112823" id="Fill-8" fill="#030100"></path>
            </g>
        </g>
    </g>
</svg>